<mxfile host="app.diagrams.net" agent="Mozilla/5.0 (Windows NT 10.0; Win64; x64) AppleWebKit/537.36 (KHTML, like Gecko) Chrome/131.0.0.0 Safari/537.36" version="26.0.3">
  <diagram name="第 1 页" id="8Djj79HaMv1FYsF4GH8a">
    <mxGraphModel grid="1" page="1" gridSize="10" guides="1" tooltips="1" connect="1" arrows="1" fold="1" pageScale="1" pageWidth="827" pageHeight="1169" math="0" shadow="0">
      <root>
        <mxCell id="0" />
        <mxCell id="1" parent="0" />
        <mxCell id="HaahVYi62sE_47uJ6bYG-1" value="&amp;lt;&amp;lt;Class&amp;gt;&amp;gt;&lt;div&gt;&lt;u&gt;當時間到達時&lt;/u&gt;&lt;/div&gt;&lt;div&gt;&lt;u&gt;:時間&lt;/u&gt;&lt;/div&gt;" style="rounded=0;whiteSpace=wrap;html=1;" vertex="1" parent="1">
          <mxGeometry x="20" y="50" width="120" height="60" as="geometry" />
        </mxCell>
        <mxCell id="HaahVYi62sE_47uJ6bYG-2" value="&amp;lt;&amp;lt;Class&amp;gt;&amp;gt;&lt;div&gt;&lt;u&gt;電梯安全員&lt;/u&gt;&lt;/div&gt;&lt;div&gt;&lt;u&gt;:電梯安全員&#39;&lt;/u&gt;&lt;/div&gt;" style="rounded=0;whiteSpace=wrap;html=1;" vertex="1" parent="1">
          <mxGeometry x="170" y="50" width="120" height="60" as="geometry" />
        </mxCell>
        <mxCell id="HaahVYi62sE_47uJ6bYG-3" value="" style="endArrow=none;dashed=1;html=1;rounded=0;" edge="1" parent="1">
          <mxGeometry width="50" height="50" relative="1" as="geometry">
            <mxPoint x="80" y="450" as="sourcePoint" />
            <mxPoint x="80" y="110" as="targetPoint" />
          </mxGeometry>
        </mxCell>
        <mxCell id="HaahVYi62sE_47uJ6bYG-4" value="" style="endArrow=classic;html=1;rounded=0;startArrow=box;startFill=0;entryX=0;entryY=1;entryDx=0;entryDy=0;" edge="1" parent="1" target="HaahVYi62sE_47uJ6bYG-11">
          <mxGeometry width="50" height="50" relative="1" as="geometry">
            <mxPoint x="80" y="140" as="sourcePoint" />
            <mxPoint x="400" y="140" as="targetPoint" />
          </mxGeometry>
        </mxCell>
        <mxCell id="HaahVYi62sE_47uJ6bYG-5" value="&amp;lt;&amp;lt;Class&amp;gt;&amp;gt;&lt;div&gt;&lt;u&gt;電梯安全員&lt;/u&gt;&lt;/div&gt;&lt;div&gt;&lt;u&gt;:電梯安全員&#39;&lt;/u&gt;&lt;/div&gt;" style="rounded=0;whiteSpace=wrap;html=1;" vertex="1" parent="1">
          <mxGeometry x="350" y="50" width="120" height="60" as="geometry" />
        </mxCell>
        <mxCell id="HaahVYi62sE_47uJ6bYG-8" value="通知維護人員做維保工單" style="text;html=1;align=center;verticalAlign=middle;whiteSpace=wrap;rounded=0;" vertex="1" parent="1">
          <mxGeometry x="160" y="110" width="140" height="30" as="geometry" />
        </mxCell>
        <mxCell id="HaahVYi62sE_47uJ6bYG-9" value="" style="endArrow=none;dashed=1;html=1;rounded=0;" edge="1" parent="1" source="HaahVYi62sE_47uJ6bYG-22">
          <mxGeometry width="50" height="50" relative="1" as="geometry">
            <mxPoint x="229.5" y="450" as="sourcePoint" />
            <mxPoint x="229.5" y="110" as="targetPoint" />
          </mxGeometry>
        </mxCell>
        <mxCell id="HaahVYi62sE_47uJ6bYG-10" value="" style="endArrow=none;dashed=1;html=1;rounded=0;" edge="1" parent="1" source="HaahVYi62sE_47uJ6bYG-16">
          <mxGeometry width="50" height="50" relative="1" as="geometry">
            <mxPoint x="413" y="450" as="sourcePoint" />
            <mxPoint x="413" y="110" as="targetPoint" />
            <Array as="points" />
          </mxGeometry>
        </mxCell>
        <mxCell id="HaahVYi62sE_47uJ6bYG-11" value="" style="rounded=0;whiteSpace=wrap;html=1;direction=south;fillColor=#E6E6E6;" vertex="1" parent="1">
          <mxGeometry x="408" y="138" width="10" height="50" as="geometry" />
        </mxCell>
        <mxCell id="HaahVYi62sE_47uJ6bYG-12" value="" style="whiteSpace=wrap;html=1;aspect=fixed;fillColor=#E6E6E6;" vertex="1" parent="1">
          <mxGeometry x="409" y="267" width="10" height="10" as="geometry" />
        </mxCell>
        <mxCell id="HaahVYi62sE_47uJ6bYG-13" value="" style="rounded=0;whiteSpace=wrap;html=1;direction=south;fillColor=#E6E6E6;" vertex="1" parent="1">
          <mxGeometry x="409" y="299" width="10" height="50" as="geometry" />
        </mxCell>
        <mxCell id="HaahVYi62sE_47uJ6bYG-17" value="" style="endArrow=none;dashed=1;html=1;rounded=0;" edge="1" parent="1" source="HaahVYi62sE_47uJ6bYG-15" target="HaahVYi62sE_47uJ6bYG-16">
          <mxGeometry width="50" height="50" relative="1" as="geometry">
            <mxPoint x="413" y="450" as="sourcePoint" />
            <mxPoint x="413" y="110" as="targetPoint" />
          </mxGeometry>
        </mxCell>
        <mxCell id="HaahVYi62sE_47uJ6bYG-16" value="" style="whiteSpace=wrap;html=1;aspect=fixed;fillColor=#E6E6E6;" vertex="1" parent="1">
          <mxGeometry x="409" y="372" width="10" height="10" as="geometry" />
        </mxCell>
        <mxCell id="HaahVYi62sE_47uJ6bYG-19" value="" style="endArrow=none;dashed=1;html=1;rounded=0;" edge="1" parent="1" target="HaahVYi62sE_47uJ6bYG-15">
          <mxGeometry width="50" height="50" relative="1" as="geometry">
            <mxPoint x="413" y="450" as="sourcePoint" />
            <mxPoint x="414" y="380" as="targetPoint" />
          </mxGeometry>
        </mxCell>
        <mxCell id="HaahVYi62sE_47uJ6bYG-15" value="" style="whiteSpace=wrap;html=1;aspect=fixed;fillColor=#E6E6E6;" vertex="1" parent="1">
          <mxGeometry x="409" y="410" width="10" height="10" as="geometry" />
        </mxCell>
        <mxCell id="HaahVYi62sE_47uJ6bYG-20" value="" style="endArrow=classic;html=1;rounded=0;exitX=0.833;exitY=0.5;exitDx=0;exitDy=0;exitPerimeter=0;" edge="1" parent="1" source="HaahVYi62sE_47uJ6bYG-22">
          <mxGeometry width="50" height="50" relative="1" as="geometry">
            <mxPoint x="240" y="410" as="sourcePoint" />
            <mxPoint x="409" y="410" as="targetPoint" />
          </mxGeometry>
        </mxCell>
        <mxCell id="HaahVYi62sE_47uJ6bYG-21" value="" style="endArrow=classic;html=1;rounded=0;exitX=0.5;exitY=0;exitDx=0;exitDy=0;" edge="1" parent="1" source="HaahVYi62sE_47uJ6bYG-22">
          <mxGeometry width="50" height="50" relative="1" as="geometry">
            <mxPoint x="358" y="372" as="sourcePoint" />
            <mxPoint x="410" y="370" as="targetPoint" />
          </mxGeometry>
        </mxCell>
        <mxCell id="HaahVYi62sE_47uJ6bYG-23" value="" style="endArrow=none;dashed=1;html=1;rounded=0;" edge="1" parent="1" target="HaahVYi62sE_47uJ6bYG-22">
          <mxGeometry width="50" height="50" relative="1" as="geometry">
            <mxPoint x="229.5" y="450" as="sourcePoint" />
            <mxPoint x="229.5" y="110" as="targetPoint" />
          </mxGeometry>
        </mxCell>
        <mxCell id="HaahVYi62sE_47uJ6bYG-22" value="" style="rounded=0;whiteSpace=wrap;html=1;direction=south;fillColor=#E6E6E6;" vertex="1" parent="1">
          <mxGeometry x="225" y="310" width="10" height="120" as="geometry" />
        </mxCell>
        <mxCell id="HaahVYi62sE_47uJ6bYG-24" value="" style="endArrow=open;html=1;rounded=0;entryX=0.25;entryY=0;entryDx=0;entryDy=0;exitX=0.75;exitY=1;exitDx=0;exitDy=0;dashed=1;endFill=0;" edge="1" parent="1" source="HaahVYi62sE_47uJ6bYG-13" target="HaahVYi62sE_47uJ6bYG-22">
          <mxGeometry width="50" height="50" relative="1" as="geometry">
            <mxPoint x="350" y="290" as="sourcePoint" />
            <mxPoint x="400" y="240" as="targetPoint" />
          </mxGeometry>
        </mxCell>
        <mxCell id="HaahVYi62sE_47uJ6bYG-25" value="工單完成通知" style="text;html=1;align=center;verticalAlign=middle;whiteSpace=wrap;rounded=0;" vertex="1" parent="1">
          <mxGeometry x="280" y="310" width="80" height="30" as="geometry" />
        </mxCell>
        <mxCell id="HaahVYi62sE_47uJ6bYG-26" value="提供待審核工單" style="text;html=1;align=center;verticalAlign=middle;whiteSpace=wrap;rounded=0;" vertex="1" parent="1">
          <mxGeometry x="275" y="342" width="90" height="30" as="geometry" />
        </mxCell>
        <mxCell id="HaahVYi62sE_47uJ6bYG-27" value="紀錄工單審核意見" style="text;html=1;align=center;verticalAlign=middle;whiteSpace=wrap;rounded=0;" vertex="1" parent="1">
          <mxGeometry x="265" y="382" width="110" height="30" as="geometry" />
        </mxCell>
        <mxCell id="HaahVYi62sE_47uJ6bYG-28" value="&amp;lt;&amp;lt;Actor&amp;gt;&amp;gt;&lt;div&gt;電梯維保資質公司&lt;/div&gt;&lt;div&gt;:電梯維保資質公司&lt;/div&gt;" style="shape=umlActor;verticalLabelPosition=bottom;verticalAlign=top;html=1;outlineConnect=0;" vertex="1" parent="1">
          <mxGeometry x="540" y="40" width="30" height="60" as="geometry" />
        </mxCell>
        <mxCell id="HaahVYi62sE_47uJ6bYG-30" value="" style="endArrow=none;dashed=1;html=1;rounded=0;" edge="1" parent="1">
          <mxGeometry width="50" height="50" relative="1" as="geometry">
            <mxPoint x="554.5" y="450" as="sourcePoint" />
            <mxPoint x="554.5" y="110" as="targetPoint" />
          </mxGeometry>
        </mxCell>
        <mxCell id="HaahVYi62sE_47uJ6bYG-29" value="" style="rounded=0;whiteSpace=wrap;html=1;direction=south;fillColor=#E6E6E6;" vertex="1" parent="1">
          <mxGeometry x="550" y="170" width="10" height="160" as="geometry" />
        </mxCell>
        <mxCell id="HaahVYi62sE_47uJ6bYG-35" style="edgeStyle=orthogonalEdgeStyle;rounded=0;orthogonalLoop=1;jettySize=auto;html=1;exitX=1;exitY=0.5;exitDx=0;exitDy=0;" edge="1" parent="1">
          <mxGeometry relative="1" as="geometry">
            <mxPoint x="562" y="246" as="targetPoint" />
            <mxPoint x="562" y="221" as="sourcePoint" />
            <Array as="points">
              <mxPoint x="587" y="221" />
            </Array>
          </mxGeometry>
        </mxCell>
        <mxCell id="HaahVYi62sE_47uJ6bYG-31" value="" style="whiteSpace=wrap;html=1;aspect=fixed;fillColor=#E6E6E6;" vertex="1" parent="1">
          <mxGeometry x="555" y="241" width="10" height="10" as="geometry" />
        </mxCell>
        <mxCell id="HaahVYi62sE_47uJ6bYG-36" value="" style="endArrow=classic;html=1;rounded=0;" edge="1" parent="1">
          <mxGeometry width="50" height="50" relative="1" as="geometry">
            <mxPoint x="550" y="273" as="sourcePoint" />
            <mxPoint x="420" y="273" as="targetPoint" />
          </mxGeometry>
        </mxCell>
        <mxCell id="HaahVYi62sE_47uJ6bYG-37" value="提供待審核工單" style="text;html=1;align=center;verticalAlign=middle;whiteSpace=wrap;rounded=0;" vertex="1" parent="1">
          <mxGeometry x="440" y="246" width="90" height="30" as="geometry" />
        </mxCell>
        <mxCell id="HaahVYi62sE_47uJ6bYG-38" value="提供作業結果" style="text;html=1;align=center;verticalAlign=middle;whiteSpace=wrap;rounded=0;" vertex="1" parent="1">
          <mxGeometry x="440" y="288" width="90" height="30" as="geometry" />
        </mxCell>
        <mxCell id="HaahVYi62sE_47uJ6bYG-39" value="" style="endArrow=classic;html=1;rounded=0;" edge="1" parent="1">
          <mxGeometry width="50" height="50" relative="1" as="geometry">
            <mxPoint x="550" y="311" as="sourcePoint" />
            <mxPoint x="420" y="311" as="targetPoint" />
          </mxGeometry>
        </mxCell>
        <mxCell id="HaahVYi62sE_47uJ6bYG-40" value="" style="endArrow=classic;html=1;rounded=0;dashed=1;" edge="1" parent="1">
          <mxGeometry width="50" height="50" relative="1" as="geometry">
            <mxPoint x="549" y="188" as="sourcePoint" />
            <mxPoint x="419" y="188" as="targetPoint" />
          </mxGeometry>
        </mxCell>
        <mxCell id="HaahVYi62sE_47uJ6bYG-42" value="維保工單通知" style="text;html=1;align=center;verticalAlign=middle;resizable=0;points=[];autosize=1;strokeColor=none;fillColor=none;" vertex="1" parent="1">
          <mxGeometry x="437" y="161" width="100" height="30" as="geometry" />
        </mxCell>
        <mxCell id="HaahVYi62sE_47uJ6bYG-44" value="維護作業" style="text;html=1;align=center;verticalAlign=middle;whiteSpace=wrap;rounded=0;" vertex="1" parent="1">
          <mxGeometry x="587" y="221" width="60" height="30" as="geometry" />
        </mxCell>
      </root>
    </mxGraphModel>
  </diagram>
</mxfile>
